<svg width="14" height="14" viewBox="0 0 14 14" fill="none" xmlns="http://www.w3.org/2000/svg">
<path d="M12.8837 10.0819C13.2353 10.0819 13.5203 9.79683 13.5203 9.44523C13.5203 9.09363 13.2353 8.80859 12.8837 8.80859C12.5321 8.80859 12.2471 9.09363 12.2471 9.44523C12.2471 9.79683 12.5321 10.0819 12.8837 10.0819Z" fill="white"/>
<path d="M11.496 12.1326C11.8476 12.1326 12.1326 11.8476 12.1326 11.496C12.1326 11.1444 11.8476 10.8594 11.496 10.8594C11.1444 10.8594 10.8594 11.1444 10.8594 11.496C10.8594 11.8476 11.1444 12.1326 11.496 12.1326Z" fill="white"/>
<path d="M13.3622 7.63948C13.7138 7.63948 13.9989 7.35445 13.9989 7.00285C13.9989 6.65124 13.7138 6.36621 13.3622 6.36621C13.0106 6.36621 12.7256 6.65124 12.7256 7.00285C12.7256 7.35445 13.0106 7.63948 13.3622 7.63948Z" fill="white"/>
<path d="M9.43449 13.5238C9.78609 13.5238 10.0711 13.2387 10.0711 12.8871C10.0711 12.5355 9.78609 12.2505 9.43449 12.2505C9.08288 12.2505 8.79785 12.5355 8.79785 12.8871C8.79785 13.2387 9.08288 13.5238 9.43449 13.5238Z" fill="white"/>
<path d="M6.99863 12.7298C6.08169 12.7309 5.17788 12.5119 4.36313 12.0913C3.54838 11.6706 2.84649 11.0606 2.31642 10.3124C1.78635 9.56416 1.44358 8.69968 1.31693 7.79153C1.19027 6.88338 1.28341 5.9581 1.58854 5.09342C1.89366 4.22874 2.40185 3.44992 3.07041 2.82239C3.73897 2.19485 4.54838 1.73694 5.43062 1.48711C6.31287 1.23729 7.24219 1.20285 8.14051 1.38669C9.03883 1.57053 9.8799 1.96728 10.5931 2.54361H9.54517C9.37633 2.54361 9.2144 2.61069 9.095 2.73008C8.97561 2.84947 8.90854 3.0114 8.90854 3.18025C8.90854 3.3491 8.97561 3.51103 9.095 3.63042C9.2144 3.74981 9.37633 3.81689 9.54517 3.81689H12.0917C12.2606 3.81689 12.4225 3.74981 12.5419 3.63042C12.6613 3.51103 12.7284 3.3491 12.7284 3.18025V0.633706C12.7284 0.46486 12.6613 0.302929 12.5419 0.183537C12.4225 0.0641442 12.2606 -0.00292969 12.0917 -0.00292969C11.9229 -0.00292969 11.7609 0.0641442 11.6415 0.183537C11.5222 0.302929 11.4551 0.46486 11.4551 0.633706V1.6084C10.5893 0.892655 9.56407 0.395777 8.46586 0.159731C7.36765 -0.0763153 6.22875 -0.0445958 5.14538 0.25221C4.06201 0.549016 3.06598 1.10219 2.24142 1.86501C1.41687 2.62783 0.787999 3.57788 0.407943 4.63493C0.0278867 5.69197 -0.0921963 6.82496 0.057837 7.93819C0.20787 9.05141 0.623613 10.1122 1.26995 11.0309C1.91628 11.9496 2.77423 12.6993 3.77131 13.2166C4.7684 13.7339 5.87534 14.0037 6.99863 14.0031C7.16748 14.0031 7.32941 13.936 7.4488 13.8166C7.56819 13.6972 7.63527 13.5353 7.63527 13.3664C7.63527 13.1976 7.56819 13.0356 7.4488 12.9163C7.32941 12.7969 7.16748 12.7298 6.99863 12.7298Z" fill="white"/>
<path d="M9.35895 9.36041C9.4783 9.24102 9.54535 9.07912 9.54535 8.91031C9.54535 8.74149 9.4783 8.57959 9.35895 8.4602L7.63558 6.73683V3.18058C7.63558 3.01173 7.5685 2.8498 7.44911 2.73041C7.32972 2.61102 7.16779 2.54395 6.99894 2.54395C6.83009 2.54395 6.66816 2.61102 6.54877 2.73041C6.42938 2.8498 6.3623 3.01173 6.3623 3.18058V7.0004C6.36234 7.16923 6.42944 7.33113 6.54884 7.4505L8.45875 9.36041C8.57813 9.47976 8.74004 9.54681 8.90885 9.54681C9.07766 9.54681 9.23956 9.47976 9.35895 9.36041Z" fill="white"/>
</svg>
