<svg width="14" height="10" viewBox="0 0 14 10" fill="none" xmlns="http://www.w3.org/2000/svg">
<path d="M12.4961 0H1.50391C1.10518 0.000407223 0.722907 0.149118 0.440964 0.413504C0.159021 0.677891 0.000434265 1.03636 0 1.41026V8.58974C0.000434265 8.96364 0.159021 9.32211 0.440964 9.5865C0.722907 9.85088 1.10518 9.99959 1.50391 10H12.4961C12.8948 9.99959 13.2771 9.85088 13.559 9.5865C13.841 9.32211 13.9996 8.96364 14 8.58974V1.41026C13.9996 1.03636 13.841 0.677891 13.559 0.413504C13.2771 0.149118 12.8948 0.000407223 12.4961 0ZM13.1797 1.41026V8.58974C13.1797 8.6209 13.1773 8.65201 13.1723 8.68282L9.22879 5L13.1723 1.31718C13.1773 1.34799 13.1797 1.3791 13.1797 1.41026ZM12.4961 0.769231C12.5276 0.769328 12.559 0.771384 12.5902 0.775385L7 5.99564L1.40984 0.775385C1.44102 0.771384 1.47244 0.769328 1.50391 0.769231H12.4961ZM0.827695 8.68282C0.82275 8.65201 0.820282 8.6209 0.820312 8.58974V1.41026C0.820282 1.3791 0.82275 1.34799 0.827695 1.31718L4.77121 5L0.827695 8.68282ZM1.50391 9.23077C1.47244 9.23067 1.44102 9.22862 1.40984 9.22462L5.35254 5.54282L6.7107 6.81103C6.78756 6.88274 6.89158 6.923 7 6.923C7.10842 6.923 7.21244 6.88274 7.2893 6.81103L8.64746 5.54282L12.5902 9.22462C12.559 9.22862 12.5276 9.23067 12.4961 9.23077H1.50391Z" fill="white"/>
</svg>
