<svg width="14" height="14" viewBox="0 0 14 14" fill="none" xmlns="http://www.w3.org/2000/svg">
<path d="M13.5497 10.0772C13.5249 10.0567 10.7268 8.06587 9.97127 8.18767C9.6068 8.25207 9.39867 8.5008 8.981 8.99827C8.9138 9.07853 8.75187 9.27033 8.6268 9.40707C8.36282 9.32106 8.10534 9.21626 7.85633 9.09347C6.57091 8.46767 5.53233 7.42909 4.90653 6.14367C4.78374 5.89466 4.67894 5.63718 4.59293 5.3732C4.73013 5.24767 4.9224 5.08573 5.00453 5.01667C5.49967 4.60133 5.74793 4.39273 5.81233 4.0278C5.9444 3.27227 3.94333 0.475067 3.9228 0.449867C3.83167 0.320626 3.71298 0.213231 3.57531 0.135435C3.43763 0.0576376 3.28439 0.0113797 3.12667 0C2.3156 0 0 3.00347 0 3.5098C0 3.5392 0.0424667 6.52773 3.72773 10.2765C7.47227 13.9575 10.4608 14 10.4902 14C10.9961 14 14 11.6844 14 10.8733C13.9885 10.7156 13.9421 10.5623 13.8643 10.4247C13.7864 10.287 13.6789 10.1683 13.5497 10.0772ZM10.4384 13.0639C10.0333 13.0293 7.52267 12.6985 4.38667 9.618C1.29127 6.4666 0.9688 3.95173 0.9366 3.56207C1.5483 2.60197 2.28704 1.72901 3.13273 0.966933C3.1514 0.9856 3.17613 1.0136 3.20787 1.05C3.85645 1.93537 4.41517 2.88319 4.87573 3.8794C4.72596 4.03007 4.56766 4.17202 4.4016 4.30453C4.14409 4.50074 3.90762 4.72313 3.696 4.96813C3.66019 5.01837 3.6347 5.07522 3.621 5.13538C3.60731 5.19553 3.60567 5.25781 3.6162 5.3186C3.71496 5.74641 3.86622 6.16037 4.06653 6.55107C4.78421 8.02481 5.97509 9.21552 7.44893 9.933C7.83956 10.1336 8.25353 10.285 8.6814 10.3838C8.74219 10.3946 8.80451 10.393 8.8647 10.3793C8.92489 10.3656 8.98173 10.34 9.03187 10.304C9.27773 10.0915 9.5009 9.85411 9.6978 9.5956C9.84433 9.42107 10.0399 9.1882 10.1141 9.1224C11.1128 9.58252 12.0627 10.1419 12.9495 10.7921C12.9883 10.8248 13.0158 10.85 13.034 10.8663C12.2719 11.7123 11.3988 12.4512 10.4384 13.0629V13.0639Z" fill="white"/>
<path d="M10 7H11C10.9988 5.9395 10.577 4.92278 9.82711 4.17289C9.07722 3.423 8.0605 3.00119 7 3V4C7.79541 4.00079 8.55801 4.31712 9.12044 4.87956C9.68288 5.44199 9.99921 6.20459 10 7Z" fill="white"/>
</svg>
