<svg width="13" height="10" viewBox="0 0 13 10" fill="none" xmlns="http://www.w3.org/2000/svg">
<path d="M5.97338 9.9999C5.93708 9.9999 5.90118 9.99279 5.86792 9.97902C5.83467 9.96526 5.80478 9.94513 5.78014 9.91991L0.569916 4.58825C0.535183 4.55271 0.512157 4.50836 0.503657 4.46062C0.495157 4.41289 0.50155 4.36385 0.522055 4.3195C0.54256 4.27515 0.576287 4.23742 0.619108 4.21093C0.661929 4.18443 0.711986 4.17032 0.763154 4.17032H3.27107C3.30873 4.17032 3.34594 4.17797 3.38021 4.19273C3.41447 4.2075 3.44499 4.22905 3.4697 4.25593L5.21098 6.15104C5.39917 5.7705 5.76346 5.13687 6.40273 4.36477C7.34779 3.22333 9.10565 1.54463 12.1131 0.0292142C12.1713 -6.93469e-05 12.2389 -0.0076696 12.3027 0.00791431C12.3664 0.0234982 12.4217 0.0611335 12.4576 0.113388C12.4934 0.165643 12.5073 0.22872 12.4964 0.290162C12.4855 0.351605 12.4506 0.406947 12.3987 0.445261C12.3872 0.45375 11.2276 1.31761 9.89307 2.89992C8.66485 4.35603 7.03216 6.737 6.22875 9.8108C6.21464 9.8648 6.18182 9.91278 6.13552 9.94707C6.08922 9.98136 6.03211 10 5.9733 10L5.97338 9.9999Z" fill="#FA6A00"/>
</svg>
