<svg width="22" height="20" viewBox="0 0 22 20" fill="none" xmlns="http://www.w3.org/2000/svg">
<path d="M10.076 19.2696C10.0123 19.2696 9.94931 19.2564 9.89099 19.2309C9.83267 19.2054 9.78025 19.1681 9.73704 19.1213L0.599183 9.23678C0.538268 9.17089 0.497885 9.08866 0.482976 9.00017C0.468068 8.91167 0.479281 8.82075 0.515243 8.73853C0.551205 8.65632 0.610357 8.58636 0.685457 8.53724C0.760558 8.48812 0.848351 8.46196 0.938091 8.46195H5.33655C5.40259 8.46196 5.46786 8.47614 5.52796 8.50352C5.58805 8.5309 5.64158 8.57085 5.68492 8.62068L8.73883 12.1341C9.06887 11.4286 9.70778 10.2539 10.829 8.82246C12.4864 6.70631 15.5694 3.59411 20.8441 0.78463C20.946 0.73034 21.0646 0.71625 21.1764 0.745141C21.2883 0.774033 21.3852 0.843806 21.4481 0.940683C21.511 1.03756 21.5353 1.1545 21.5162 1.26841C21.497 1.38232 21.4359 1.48492 21.3448 1.55595C21.3247 1.57169 19.291 3.17323 16.9504 6.10672C14.7963 8.80626 11.9329 13.2204 10.5238 18.919C10.4991 19.0191 10.4415 19.1081 10.3603 19.1717C10.2791 19.2352 10.1789 19.2698 10.0758 19.2698L10.076 19.2696Z" fill="#D49E14"/>
</svg>
